<?xml version="1.0" ?><!-- Uploaded to: SVG Repo, www.svgrepo.com, Generator: SVG Repo Mixer Tools -->
<svg width="800px" height="800px" viewBox="0 0 24 24" data-name="025_SCIENCE" id="_025_SCIENCE" xmlns="http://www.w3.org/2000/svg"><defs><style>.cls-1{fill:#333;}</style></defs><path class="cls-1" d="M11,17H3a1,1,0,0,1-1-1V4A1,1,0,0,1,3,3h8a1,1,0,0,1,0,2H4V15h7a1,1,0,0,1,0,2Z"/><path class="cls-1" d="M11,9H3A1,1,0,0,1,3,7h8a1,1,0,0,1,0,2Z"/><path class="cls-1" d="M11,13H3a1,1,0,0,1,0-2h8a1,1,0,0,1,0,2Z"/><path class="cls-1" d="M7,17a1,1,0,0,1-1-1V4A1,1,0,0,1,8,4V16A1,1,0,0,1,7,17Z"/><path class="cls-1" d="M11,22H8a1,1,0,0,1,0-2h2V4a1,1,0,0,1,2,0V21A1,1,0,0,1,11,22Z"/><path class="cls-1" d="M16.5,18a1,1,0,0,1-.82-1.57L18.08,13H15.5a1,1,0,0,1-.89-.54,1,1,0,0,1,.07-1l3.5-5a1,1,0,0,1,1.64,1.14L17.42,11H20a1,1,0,0,1,.89.54,1,1,0,0,1-.07,1l-3.5,5A1,1,0,0,1,16.5,18Z"/></svg>